# xmcd
#
# Track frame offsets: 
#        150
#        14506
#        30812
#
# Disc length: 611 seconds
#
# Revision: 0
# Processed by: cddbd v1.5.2PL0 Copyright (c) Steve Scherf et al.
# Submitted via: ExactAudioCopy v0.99pb4
#
DISCID=14026103
DTITLE=The Rhythm Junks - Power To Reality
DYEAR=2004
DGENRE=Blues
TTITLE0=Power To Reality
TTITLE1=Amazing Glue (DNA Remix)
TTITLE2=Amazing Glue (BC Remix)
EXTD=
EXTT0=
EXTT1=
EXTT2=
PLAYORDER=
